<svg version="1" xmlns="http://www.w3.org/2000/svg" width="1185.333" height="1185.333" viewBox="0 0 889.000000 889.000000"><path d="M436.3 143.8c-7.8 11.9-23 35.2-33.9 51.7-10.8 16.5-23.4 35.6-27.9 42.5-8.8 13.4-23.3 35.5-49.8 75.8-9.2 13.9-16.7 25.5-16.7 25.6 0 .2 3.1 2.6 6.9 5.4 22.9 17.1 40 45.7 44.1 74 2 13.2.8 35.5-2.4 47.7-10 38.1-40.9 70.2-77.8 80.9-22 6.3-48.8 6.1-69.8-.6-6.4-2-22.2-9.4-26.3-12.3-2.1-1.4-2.7-.6-21.9 28.5L141 593h-4.2c-4.7 0-19.4 2.2-27.3 4-16.2 3.6-35.8 13.9-43.5 22.6-19.2 21.7-19.5 53.8-.8 73.9l5.5 5.9L75 693l4.4-6.4 2 2.9c4.5 6.3 11.3 12.8 15.6 15 6.7 3.4 19.4 7.1 29 8.5 11.5 1.7 50.9.8 60.2-1.4 15.5-3.6 22.8-9.8 22.8-19.6 0-4.6-2.9-9.8-7.2-12.6-1.5-1.1-2.8-2.3-2.8-2.7 0-1 5.5-3.3 10.1-4.2 3.4-.6 3.6-.5 6.4 4.7 5.5 10 4.4 28.9-2 36.1-2.4 2.7-3.7 3-16.8 5-19.7 2.8-68.7 3.1-81.7.5-16.5-3.4-27.7-7.8-38.3-15-3.3-2.2-6-3.8-6.2-3.6-.1.2-2 3-4.1 6.3-2.1 3.3-10 15.3-17.6 26.7L35.1 754h415.5c332.1 0 415.4-.3 414.8-1.2-2.6-4.2-13.8-21.4-32.9-50.3l-21.8-33 1.3-34c.7-18.7 1.3-35.5 1.4-37.4.2-6.3-2.8-6.2-26.2 1.1l-3.4 1 3.5 3.2c3.4 3.1 3.5 3.5 4.2 12.6.3 5.2.5 12.9.3 17l-.3 7.5-4.1-6.5c-2.3-3.6-12.1-18.7-21.9-33.5-9.8-14.9-23.8-36.1-31.1-47.2l-13.3-20.2-6.1 3.4c-20.7 11.7-39.1 16.2-62.9 15.2-14.7-.6-20.5-1.5-32.1-5.3-15.6-5-29.5-13.4-42.2-25.3-52.6-49.3-47.8-133.5 10.2-177.2 3-2.3 5.4-4.5 5.3-4.9-.1-.4-8-12.6-17.6-27.1-9.6-14.5-22.1-33.6-27.9-42.4-50.8-77.4-97-147.5-97.2-147.4 0 0-6.5 9.8-14.3 21.7zm23.2 13.7c3.7 8.8 7.7 18 8.8 20.5 2.5 5.6 12 20.9 28.5 45.8 7 10.6 17.2 26.2 22.7 34.5 53.5 81.3 50.4 76.2 48.4 80-.7 1.2-4.5 5.7-8.6 10.1-9.7 10.3-15.4 18.4-21.7 30.9-9.7 19.1-13.6 36.1-13.6 58.9 0 61.9 43.3 114.3 104.5 126.4 11 2.2 31.6 2.2 42.9 0 9.4-1.8 22.7-6.3 28.1-9.4 5.3-3.2 10.1-4.5 12.3-3.3 1.1.6 3.2 3.2 4.8 5.8 1.5 2.7 15.5 24 31.1 47.5 23.1 34.9 28.5 43.7 29.4 48 .9 3.8.8 13.5-.1 37.4-1.3 36-1.3 36.5 5 39.7 2.5 1.3 4.7 1.6 7.5 1.2 7.7-1.1 18.3-7.9 17.1-11-.5-1.5 5.5-3.8 13-5 3.9-.6 4.1-.5 3.7 1.7-.3 1.7 1.2 4.6 5.2 10.3 7.3 10.5 9.5 13.9 9.5 14.7 0 2.6-11.3 2.8-185.4 2.8-127.2 0-180.2.3-183.1 1.1-4.5 1.3-10.8 5.3-9.8 6.2.3.4-1.5.7-4 .7H451V446.3c0-175.5.4-306.3.9-305.8.5.6 3.9 8.2 7.6 17zm-22.1 26.2c.9 5.5.6 503.4-.3 505.7-.6 1.6-.9 1.7-1.7.5-.5-.8-1-102.6-1.2-255.7-.2-215.5 0-254.2 1.2-254.2.8 0 1.6 1.5 2 3.7zm-105 150.9c.3.9.6 2.4.6 3.5 0 1.6-.3 1.7-2.5.7-2.7-1.2-3.2-2.7-1.3-4.6 1.6-1.6 2.5-1.5 3.2.4zm27.5 37.2c15.9 26.5 21.7 61.8 14.7 88.8-1.6 6.2-3.1 8.8-1.9 3.3.5-1.9.8-12.4.8-23.4 0-21.3-1-29-6-43.9-3-9.2-9.9-25.1-12.9-29.6-1.2-1.9-2.9-4.6-3.6-6l-1.2-2.5 2.5 2.5c1.5 1.4 4.8 6.2 7.6 10.8zM347.5 648c0 56.9.1 57.7 5.5 64.1l2.6 3.2 8.5-1.6c9.1-1.8 52.6-3.5 59.1-2.3 3.5.6 5.7 3.1 4.1 4.7-1.7 1.7-23.6 2.9-57.1 3-19.4.1-35.5-.1-35.7-.3-.3-.3 0-4.7.6-9.9 1.3-11.6 2.5-92.9 1.4-102.3-.8-8.4-2.9-11-7.9-10.1-2.5.5-3.5.3-3.9-.9-.8-2.1.4-2.7 10.3-5.1l8.5-2.1 2 3.5c1.9 3.5 2 5.3 2 56.1zm-28.7-54.5c.7 1.4 1.2 3.6 1.2 4.8 0 1.2.9 5.1 2 8.5 1.8 5.7 2 9.2 2 33 0 14.7-.5 35.9-1 47.1-.9 19-.9 20.9 1 28.9 1.1 4.7 1.8 8.7 1.6 8.9-1 1-2.9-1.1-4.5-4.8-1.6-3.6-1.7-8.1-1.3-54.6.4-50.1.4-50.9-1.7-56.8-3.9-10.8-4.2-12.1-3.1-14.9 1.2-3.3 2.4-3.3 3.8-.1zM189 595.6c4.7.9 9.4 1.9 10.5 2.3 7.4 2.8 13.7 6.4 15.1 8.6 2.1 3.2 4.4 13.9 3.4 15.6-1.3 2-3.8.2-4.5-3.3-.4-1.8-1.4-4.3-2.2-5.5-2.9-4.4-15.4-8.9-31.3-11.3-8.2-1.2-36.5-1.4-41.8-.2-3.6.8-.7-3.3-40.2 56.7-8.5 12.9-15.8 23.5-16.1 23.5-1.1 0-4.8-10.1-5.9-15.9-2.1-11.4-.3-24.1 4.8-33.4 3.6-6.7 12.4-15.4 20.1-19.9 6.4-3.7 18.3-7.8 28.2-9.8 5-1 6-1.6 8.9-5.7l3.3-4.6 19.6.7c10.8.3 23.4 1.4 28.1 2.2zm-67.3 6c-.3.3-1.2.4-1.9.1-.8-.3-.5-.6.6-.6 1.1-.1 1.7.2 1.3.5zm679 17.1c-.2 1.6-.4.3-.4-2.7s.2-4.3.4-2.8c.2 1.6.2 4 0 5.5zM144.5 615c.7 1.2-1.2 5-2.5 5-.6 0-1-1.4-1-3 0-3 2.1-4.2 3.5-2zm-78.4 57.9c2.4 5.5 2.4 7.7-.1 3.1-2.1-4-4.1-13.6-3.9-18.9.1-2 .6-.3 1.1 3.9.5 4.1 1.8 9.5 2.9 11.9zm125.3 3.3c2 9.4 2.5 13.1 2 13.9-2.7 4.4-7-8.7-4.8-14.5.9-2.3 2.3-2 2.8.6zm626 23c4.9 9.9 4.8 10.8-1 10.8-3.9 0-4.4-1-5.1-11.8-.4-5.7-.3-8.2.5-8.2.6 0 3.2 4.1 5.6 9.2zm-13.6 3.5l-.4 3.8-.8-3.8c-.5-2-.5-5.4 0-7.5l.8-3.7.4 3.7c.2 2.1.2 5.5 0 7.5zm-527.5 4.7c2.1 3.4 2.7 5.5 2.5 9-.1 4.5-.2 4.6-3.5 4.6-10.3 0-14.4-10.3-6.4-15.7 1.9-1.3 3.7-2.3 4-2.3.3.1 1.8 2 3.4 4.4zm-21 8.4c2 9.1 2 9.2.7 9.2-2.1 0-5-6.5-5-11.1 0-4.3.5-5.9 2-5.9.4 0 1.4 3.5 2.3 7.8zM441 710c0 .5-.8 1.6-1.7 2.6-1.7 1.6-1.8 1.6-2.3-.7-.4-1.6-.1-2.6.9-3 1.8-.7 3.1-.2 3.1 1.1zm3 3.5c0 1.4-.4 2.5-1 2.5-.5 0-1-1.1-1-2.5s.5-2.5 1-2.5c.6 0 1 1.1 1 2.5zM78 722c0 1.3-.7 2-2 2s-2-.7-2-2 .7-2 2-2 2 .7 2 2zm360 10.9c0 3.2-1.4 4.9-2.5 3.1-.9-1.5.3-6 1.5-6 .6 0 1 1.3 1 2.9zm-371.6 4.5c-.6 1.6-4.9 3.7-5.8 2.9-.3-.4.1-1.5 1.1-2.5 1.9-2.1 5.5-2.5 4.7-.4z"/><path d="M554.5 593.1c-16.3 4-33.7 14.6-43.7 26.6-16.3 19.6-19.5 50-7.7 73.4 4 8.1 15.9 20.1 25.4 25.7 8.9 5.2 22.5 9.8 34 11.3 10.6 1.4 43.3.7 51.5-1.1 13.1-2.8 19.3-6 11.6-6-6.7 0-4.5-1.8 3.7-3 30-4.5 71.6-19.3 72.5-25.8.5-3.5-2-3.6-9.5-.3-13.7 6-35.9 12.7-51.7 15.7-11.2 2.2-40.3 3-50.8 1.4-35.4-5.1-56.4-24.6-55.7-51.9.3-14.2 4.7-24.2 15-34.2 9.9-9.7 26.2-17.5 42.9-20.4 10-1.8 14.4-2.4 14.8-2.1.4.5-2.2 1.3-6.5 2.1-3.7.6-8.4 2.3-6.5 2.4.6.1 1.2.5 1.2 1s-1 .7-2.2.4c-1.3-.3-2-.3-1.6.2.4.4 8.7.9 18.5 1.1 20.7.6 35.9 2.5 42 5.5 2.3 1.1 6.1 4.2 8.4 6.7 5 5.8 7.3 7.1 12.2 7.2 3.2 0 4-.5 5.5-3.1.9-1.7 4-6.9 6.8-11.4 2.8-4.6 4.8-8.8 4.4-9.4-.9-1.6-12.8-5.6-22.5-7.6-27.8-5.8-55.7-6.8-85-2.9-2.7.3-3.5.2-2.6-.4 5.1-3.6-11.3-4.3-24.4-1.1zm125 14.9c.3.5.2 1-.4 1-.5 0-1.3-.5-1.6-1-.3-.6-.2-1 .4-1 .5 0 1.3.4 1.6 1zM557 610.4c0 .2-2.6 1.9-5.9 3.9-7.5 4.7-17.3 15.2-21 22.5-10 20-6.3 43.1 9.3 58.5 7 6.9 21.7 14.5 34.1 17.7 4.9 1.2 6.3 1.8 3.5 1.5-13.9-1.8-33.5-11.5-41.4-20.6-17.7-20.5-16.5-50.5 2.7-69.9 6.2-6.4 18.7-15.4 18.7-13.6zm139 86.5c0 1-2.5 2.1-4.8 2.1-1.5-.1-1.4-.3.2-1.5 2.2-1.7 4.6-2 4.6-.6z"/><path d="M672 695.1c-6.6 3.4-6.9 5.2-.5 3.6.6-.1 3.6-1.3 6.8-2.6 4.1-1.7 5.4-2.6 4.5-3.2-2.2-1.4-5-.9-10.8 2.2zM716.5 700.2c-10.6 9.2-9.6 23.2 2 28.8 5.3 2.6 10.1 2.5 14.4-.1 2.6-1.6 3.2-2.5 2.8-4.4-.3-1.8.1-2.6 1.4-3 3.4-1.1 7.9-6.2 7.9-9 0-4-5.5-9.1-10.8-10-2.3-.4-4.2-1.1-4.2-1.5 0-1.9-3.4-4-6.5-4-2.4 0-4.5.9-7 3.2zM464.1 703.1c-4 1.6-7.1 5.7-7.1 9.4 0 1.9.5 3.7 1 4 .6.3 1 1.5 1 2.5 0 3.2 5.8 9 9 9 3 0 5.4-2.2 4.8-4.2-.2-.6 1.4-2.6 3.6-4.3 7.6-5.7 6.9-11.6-1.7-15.6-4.6-2.1-7-2.2-10.6-.8zM149.9 279c-13.4 2.3-35.5 10.2-34.2 12.3.4.6.1.7-.6.3-1.3-.9-10.7 4.4-18.1 10.2-5.4 4.2-18 16.4-18 17.4 0 .4 2.3-1.8 5.2-4.8 5.6-5.9 14.1-12.6 15.5-12.2.4.2.9-.1 1-.6.3-1.7 2.8-2.6 7.3-2.6 2.5 0 11-1.4 19-3.1 37.8-7.9 66.4-3.4 93.4 14.5 18.2 12.1 31.5 28.8 39.1 49 4.6 12.2 5.9 19.9 5.8 35.6 0 12.3-.4 16-2.6 24.3-7.9 30-27.9 54.2-56.7 68.6-10.8 5.4-20.4 8.6-36.5 12.1-5.5 1.2-12 2.9-14.5 3.8-6.8 2.4-16.2 2-24.5-1-10.5-3.9-11.3-4.1-8.4-2.4 4.6 2.7 17.7 6.5 27.5 8.1 72.3 11.6 138.2-47.8 134-121-3-53.3-42.6-97.9-95.9-108-8.4-1.6-29.7-1.9-37.8-.5zM711 279.5c-24.2 4.9-44.1 15.5-61.6 32.9-37.8 37.5-45.1 94-17.9 140.1 4.7 8 17.2 23.5 22.1 27.5 14.6 11.7 25.7 18.3 38.9 23 12.6 4.4 21.2 6.1 34.5 6.7 41.9 1.9 83-21 105-58.7 4.8-8.3 9.3-19.3 12.1-30.2 2.8-10.5 3.7-33.3 1.9-44.6-6.4-40.2-34.5-75.1-72.7-90.3-13.7-5.5-26.9-7.9-42.3-7.8-7.4 0-16.4.7-20 1.4zm-77.5 111.2c0 16.3.3 19.9 2.2 26.9 2.7 9.9 8 22.6 12.8 30.8l3.6 6.1-3.3-3.5c-7.4-7.8-14.6-22.6-17.5-36.4-1.7-8.3-1.3-34 .7-39.4.6-1.7 1.3-3.2 1.3-3.2.1 0 .2 8.4.2 18.7zM72.9 326.7c-1.3 1.6-1.2 1.7.4.4 1.6-1.3 2.1-2.1 1.3-2.1-.2 0-1 .8-1.7 1.7zM103 490.4c0 .2.7.7 1.6 1 .8.3 1.2.2.9-.4-.6-1-2.5-1.4-2.5-.6zM116.7 498.1c.7.7 1.5 1 1.8.7.3-.3-.2-.9-1.2-1.2-1.4-.6-1.5-.5-.6.5zM865.9 703.7c-10.7 4.5-10.2 14 .9 17.4 5.7 1.7 12.2-.7 14.7-5.4 1.6-3.1 1.6-3.5.1-6.5-2.8-5.3-10-7.9-15.7-5.5z"/></svg>